<?xml version="1.0" encoding="UTF-8" standalone="no"?>
<!-- Created with Inkscape (http://www.inkscape.org/) -->

<svg
   width="135.2021mm"
   height="135.38168mm"
   viewBox="0 0 135.20211 135.38168"
   version="1.1"
   id="svg5"
   inkscape:version="1.3.2 (091e20e, 2023-11-25, custom)"
   sodipodi:docname="Icon Pack Website Keluarga Bahagia.pdf"
   inkscape:dataloss="true"
   xmlns:inkscape="http://www.inkscape.org/namespaces/inkscape"
   xmlns:sodipodi="http://sodipodi.sourceforge.net/DTD/sodipodi-0.dtd"
   xmlns="http://www.w3.org/2000/svg"
   xmlns:svg="http://www.w3.org/2000/svg">
  <sodipodi:namedview
     id="namedview7"
     pagecolor="#ffffff"
     bordercolor="#eeeeee"
     borderopacity="1"
     inkscape:showpageshadow="0"
     inkscape:pageopacity="0"
     inkscape:pagecheckerboard="0"
     inkscape:deskcolor="#4d4d4d"
     inkscape:document-units="mm"
     showgrid="false"
     inkscape:zoom="0.2447271"
     inkscape:cx="83.766776"
     inkscape:cy="1052.1924"
     inkscape:window-width="1920"
     inkscape:window-height="991"
     inkscape:window-x="-9"
     inkscape:window-y="-9"
     inkscape:window-maximized="1"
     inkscape:current-layer="layer1" />
  <defs
     id="defs2" />
  <g
     inkscape:label="Layer 1"
     inkscape:groupmode="layer"
     id="layer1"
     transform="translate(9.3952,-230.88569)">
    <path
       style="fill:currentColor;fill-opacity:1"
       d="m 52.6496,366.17651 c -7.7304,-0.7167 -13.9362,-2.3758 -17.5616,-4.6949 -1.5801,-1.0108 -3.5159,-2.9068 -3.7632,-3.6859 -0.1373,-0.4327 -0.3211,-0.4809 -1.2581,-0.3302 -4.0272,0.6476 -6.0328,0.7817 -11.6806,0.7809 -7.0404,0 -10.3862,-0.3618 -15.6222,-1.6842 -5.6206,-1.4195 -10.0189,-4.0823 -11.5912,-7.0177 -0.5647,-1.0542 -0.5679,-1.1601 -0.5679,-18.9195 0,-17.7594 0,-17.8653 0.5679,-18.9195 2.0628,-3.851 8.4417,-6.8725 17.2915,-8.1905 5.8749,-0.8749 15.2148,-0.7994 20.8899,0.1689 1.2226,0.2086 1.7347,0.21 1.803,0.01 0.2181,-0.6543 1.7677,-2.3461 2.9901,-3.2646 3.3339,-2.5051 9.1201,-4.3298 15.8566,-5.0006 1.6735,-0.1666 3.3106,-0.3535 3.638,-0.4152 l 0.5953,-0.1123 v -8.1697 -8.1696 l -8.4005,-0.1278 c -7.2391,-0.1102 -8.7297,-0.2034 -10.7818,-0.6741 -7.3294,-1.6815 -12.7893,-4.6986 -17.9942,-9.9436 -4.1988,-4.2311 -6.8408,-8.4687 -8.5725,-13.7495 -1.4669,-4.473 -1.6527,-5.8524 -1.787,-13.2629 -0.1417,-7.8153 -0.066,-8.1819 1.9229,-9.3222 2.1399,-1.2269 3.6827,-0.6489 6.8517,2.5667 3.8599,3.9169 5.1365,4.4591 11.2447,4.777 6.5534,0.3409 10.3881,1.2411 15.2136,3.5713 6.1771,2.9829 11.7668,8.1033 15.23,13.9514 0.4955,0.8368 0.9643,1.5214 1.0419,1.5214 0.077,0 0.5463,-0.6846 1.0418,-1.5214 2.3988,-4.0506 6.8025,-8.7606 10.5015,-11.2318 6.1629,-4.1173 11.7419,-5.8787 19.9421,-6.2959 6.1062,-0.3108 7.3817,-0.852 11.2448,-4.772 3.137,-3.1832 4.5764,-3.7445 6.7538,-2.6337 0.6917,0.3529 1.2344,0.9055 1.6076,1.637 0.5431,1.0645 0.5584,1.3477 0.4265,7.8678 -0.1112,5.499 -0.2379,7.2087 -0.6773,9.1448 -1.6564,7.2973 -4.7179,12.8477 -9.9256,17.9942 -5.2081,5.1469 -10.6132,8.1022 -17.7642,9.7127 -2.031,0.4574 -3.6168,0.5549 -10.7818,0.6634 l -8.4005,0.1272 v 8.1696 8.1697 l 0.5953,0.1131 c 0.3274,0.062 1.9858,0.2501 3.6851,0.4175 5.6099,0.5526 11.2886,2.1558 14.4602,4.0824 1.4782,0.898 4.0655,3.358 4.3132,4.101 0.098,0.294 0.4496,0.3048 1.9604,0.06 12.0146,-1.9462 26.5625,-0.3244 33.591,3.7448 1.6868,0.9765 3.7154,2.9318 4.4532,4.2923 0.5727,1.0561 0.5739,1.0956 0.5739,18.9177 0,17.7594 0,17.8653 -0.5679,18.9195 -2.1028,3.9258 -8.5391,6.9245 -17.5939,8.1972 -6.1603,0.8659 -14.9101,0.7929 -20.564,-0.1715 -1.3744,-0.2344 -1.7233,-0.2204 -1.8971,0.076 -2.3431,3.9954 -8.2282,6.7426 -17.2396,8.0476 -2.8788,0.4169 -12.6713,0.7259 -15.2948,0.4827 z m 11.5296,-8.0524 c 5.4815,-0.535 11.079,-1.9995 13.0753,-3.4211 l 0.7951,-0.5661 v -3.3936 -3.3936 l -2.3657,0.7608 c -9.6019,3.0878 -25.3542,3.0878 -34.9561,0 l -2.3657,-0.7608 v 3.4079 3.4078 l 0.9922,0.6518 c 2.0707,1.3603 7.4245,2.7686 12.5016,3.2885 3.268,0.3346 8.9963,0.3432 12.3233,0.018 z m -39.9723,-7.9279 c 1.6007,-0.1497 3.6546,-0.3999 4.5641,-0.5561 l 1.6536,-0.284 v -3.9594 c 0,-3.6485 -0.036,-3.9483 -0.463,-3.8178 -2.9607,0.9054 -15.7628,1.1031 -21.1005,0.3258 -3.3236,-0.484 -7.7939,-1.5218 -9.3424,-2.1688 -0.4998,-0.2088 -0.9572,-0.3797 -1.0164,-0.3797 -0.059,0 -0.074,1.5774 -0.034,3.5052 l 0.074,3.5051 1.3166,0.7106 c 4.8669,2.6269 15.3071,3.9644 24.348,3.1191 z m 82.708,-0.3605 c 3.898,-0.6144 6.8472,-1.4334 8.9975,-2.4986 l 1.957,-0.9694 0.074,-3.5057 c 0.041,-1.9282 0.025,-3.5058 -0.034,-3.5058 -0.059,0 -0.5166,0.1709 -1.0163,0.3797 -1.5486,0.647 -6.0188,1.6848 -9.3424,2.1688 -5.3378,0.7773 -18.1398,0.5796 -21.1006,-0.3258 -0.4266,-0.1305 -0.463,0.1695 -0.463,3.821 v 3.9627 l 1.7859,0.301 c 5.1139,0.8617 14.246,0.9438 19.1419,0.1721 z m -42.7357,-7.5866 c 5.4815,-0.535 11.079,-1.9995 13.0753,-3.4211 l 0.7951,-0.5661 v -3.3936 -3.3936 l -2.3657,0.7608 c -9.6019,3.0878 -25.3542,3.0878 -34.9561,0 l -2.3657,-0.7608 v 3.4079 3.4078 l 0.9922,0.6518 c 2.0707,1.3603 7.4245,2.7686 12.5016,3.2885 3.268,0.3346 8.9963,0.3432 12.3233,0.018 z m -39.9723,-7.9279 c 1.6007,-0.1497 3.6546,-0.3999 4.5641,-0.5561 l 1.6536,-0.284 v -3.9594 c 0,-3.6485 -0.036,-3.9483 -0.463,-3.8178 -2.9607,0.9054 -15.7628,1.1031 -21.1005,0.3258 -3.3236,-0.484 -7.7939,-1.5218 -9.3424,-2.1688 -0.4998,-0.2088 -0.9572,-0.3797 -1.0164,-0.3797 -0.059,0 -0.074,1.5774 -0.034,3.5052 l 0.074,3.5051 1.3166,0.7106 c 4.8669,2.6269 15.3071,3.9644 24.348,3.1191 z m 82.708,-0.3605 c 3.898,-0.6144 6.8472,-1.4334 8.9975,-2.4986 l 1.957,-0.9694 0.074,-3.5057 c 0.041,-1.9282 0.025,-3.5058 -0.034,-3.5058 -0.059,0 -0.5166,0.1709 -1.0163,0.3797 -1.5486,0.647 -6.0188,1.6848 -9.3424,2.1688 -5.3378,0.7773 -18.1398,0.5796 -21.1006,-0.3258 -0.4266,-0.1305 -0.463,0.1695 -0.463,3.821 v 3.9627 l 1.7859,0.301 c 5.1139,0.8617 14.246,0.9438 19.1419,0.1721 z m -42.7357,-7.5866 c 5.4815,-0.535 11.079,-1.9995 13.0753,-3.4211 l 0.7951,-0.5661 v -3.3936 -3.3936 l -2.3657,0.7608 c -9.6019,3.0878 -25.3542,3.0878 -34.9561,0 l -2.3657,-0.7608 v 3.4079 3.4078 l 0.9922,0.6518 c 2.0707,1.3603 7.4245,2.7686 12.5016,3.2885 3.268,0.3346 8.9963,0.3432 12.3233,0.018 z m -39.9723,-7.9279 c 1.6007,-0.1497 3.6546,-0.3999 4.5641,-0.5561 l 1.6536,-0.284 v -2.8561 -2.8561 l -1.6536,-0.2859 c -7.4711,-1.2915 -17.1531,-0.9752 -24.1433,0.7888 -2.1355,0.539 -5.6885,2.0087 -5.6885,2.3532 0,0.1024 0.8037,0.5562 1.7859,1.0083 2.7236,1.2535 7.4921,2.2953 12.7662,2.7891 2.19,0.205 8.0304,0.1499 10.7156,-0.1012 z m 82.9469,-0.3871 c 1.3824,-0.232 3.447,-0.66 4.588,-0.9511 2.1459,-0.5476 5.7307,-2.0203 5.7307,-2.3543 0,-0.3476 -3.5421,-1.8152 -5.6885,-2.3569 -6.9902,-1.764 -16.6721,-2.0803 -24.1432,-0.7888 l -1.6537,0.2859 v 2.8594 2.8593 l 1.7859,0.301 c 5.2,0.8762 14.6057,0.9469 19.3808,0.1455 z m -39.7346,-7.9372 c 4.3161,-0.6751 10.1012,-2.5705 10.1012,-3.3094 0,-0.3604 -2.6397,-1.5114 -5.1043,-2.2256 -6.8521,-1.9857 -17.6902,-2.2664 -25.6535,-0.6645 -2.7109,0.5453 -6.5879,1.8463 -7.4589,2.5029 -0.5084,0.3833 -0.5084,0.3911 0,0.7744 1.5398,1.1609 7.678,2.7766 12.5522,3.3042 3.224,0.3489 12.3179,0.1257 15.5633,-0.382 z m -13.4467,-39.7715 c 0,-0.1178 -0.2533,-1.216 -0.5629,-2.4405 -2.5341,-10.0208 -10.2948,-17.7786 -20.3461,-20.3383 -1.5292,-0.3894 -3.714,-0.6503 -6.8722,-0.8207 -5.0192,-0.2708 -7.4488,-0.7762 -9.8792,-2.0552 -0.7511,-0.3953 -1.4683,-0.7635 -1.5937,-0.8183 -0.3286,-0.1435 0.041,2.9046 0.6623,5.4675 2.2347,9.2133 9.1447,16.7268 18.1277,19.7106 1.5781,0.5242 3.6432,1.0635 4.5891,1.1984 2.1417,0.3055 15.875,0.389 15.875,0.096 z m 26.4665,-0.5125 c 5.3711,-1.4689 9.6643,-3.8866 13.2259,-7.4482 4.4935,-4.4935 7.4056,-10.5854 8.0733,-16.8889 l 0.1746,-1.6481 -1.9436,0.897 c -2.9722,1.3717 -4.9151,1.7701 -9.8011,2.0094 -3.0412,0.149 -5.1381,0.3968 -6.7291,0.7954 -10.1052,2.5316 -17.8905,10.2858 -20.4368,20.3554 -0.3097,1.2245 -0.563,2.3343 -0.563,2.4663 0,0.141 3.3033,0.1919 8.0036,0.1234 7.0273,-0.1025 8.2468,-0.1833 9.9962,-0.6617 z"
       id="path120" />
  </g>
</svg>
