<?xml version="1.0" encoding="UTF-8" standalone="no"?>
<!-- Created with Inkscape (http://www.inkscape.org/) -->

<svg
   width="133.1423mm"
   height="132.05367mm"
   viewBox="0 0 133.14231 132.05366"
   version="1.1"
   id="svg5"
   inkscape:version="1.3.2 (091e20e, 2023-11-25, custom)"
   sodipodi:docname="Icon Pack Website Keluarga Bahagia.pdf"
   inkscape:dataloss="true"
   xmlns:inkscape="http://www.inkscape.org/namespaces/inkscape"
   xmlns:sodipodi="http://sodipodi.sourceforge.net/DTD/sodipodi-0.dtd"
   xmlns="http://www.w3.org/2000/svg"
   xmlns:svg="http://www.w3.org/2000/svg">
  <sodipodi:namedview
     id="namedview7"
     pagecolor="#ffffff"
     bordercolor="#eeeeee"
     borderopacity="1"
     inkscape:showpageshadow="0"
     inkscape:pageopacity="0"
     inkscape:pagecheckerboard="0"
     inkscape:deskcolor="#4d4d4d"
     inkscape:document-units="mm"
     showgrid="false"
     inkscape:zoom="0.2447271"
     inkscape:cx="83.766776"
     inkscape:cy="1052.1924"
     inkscape:window-width="1920"
     inkscape:window-height="991"
     inkscape:window-x="-9"
     inkscape:window-y="-9"
     inkscape:window-maximized="1"
     inkscape:current-layer="layer1" />
  <defs
     id="defs2" />
  <g
     inkscape:label="Layer 1"
     inkscape:groupmode="layer"
     id="layer1"
     transform="translate(8.3652997,35.058952)">
    <path
       style="fill:currentColor;fill-opacity:1"
       d="m 44.504291,96.820798 c -7.6398,-0.92582 -15.6719,-4.26533 -21.5636,-8.96543 -1.9282,-1.53824 -5.7198,-5.41652 -7.3954,-7.5645 -7.7717997,-9.9627 -11.0639997,-22.64309 -9.0050997,-34.68497 0.493,-2.88349 1.9561,-7.64596 3.1618,-10.29156 0.9882997,-2.1688 0.8930997,-2.11112 3.9254997,-2.3763 3.7356,-0.32668 11.1789,-2.21422 12.5446,-3.18115 1.076,-0.76193 3.1762,-8.71854 3.6575,-13.85698 l 0.1825,-1.94929 1.8883,-0.86471 c 2.2195,-1.01641 5.3895,-2.09752 7.7672,-2.64892 2.2458,-0.5208485 2.268,-0.5159785 1.7977,0.39361 -1.4806,2.86301 -3.5383,9.32109 -3.9896,12.52099 -0.1745,1.23775 -0.219,1.28911 -1.8007,2.08142 -4.2988,2.15331 -8.6483,5.95741 -11.269,9.8559 -6.7679,10.06768 -7.3815,23.38659 -1.5368,33.36029 1.576,2.68928 3.0161,4.47892 5.5923,6.94937 4.5758,4.38803 9.8826,7.03008 16.4037,8.16684 3.5233,0.61417 9.2122,0.37833 12.6814,-0.52573 18.8228,-4.90506 28.7028,-25.58777 20.5421,-43.00235 -3.7415,-7.98407 -11.3358,-14.73236 -18.8374,-16.73871 -0.6893,-0.18437 -1.2518,-0.45934 -1.2501,-0.61106 0,-0.15172 0.4,-1.1844 0.8848,-2.29485 1.0447,-2.39275 2.7904,-5.07541 4.6642,-7.16761 l 1.3556,-1.51369 1.7717,0.66623 c 9.1036,3.4235 17.6865,11.49052 22.4989,21.14656 2.8528,5.72418 4.2172,10.99863 4.4592,17.23833 0.4832,12.46283 -3.6836,23.74344 -11.9384,32.31984 -6.6202,6.87811 -14.4055,11.18038 -23.5669,13.02332 -3.0658,0.61673 -10.4759,0.89686 -13.626,0.51511 z m 49.6112,-25.60966 c 1.3844,-3.47954 2.7441,-8.86239 3.1669,-12.53807 0.1666,-1.44792 0.2242,-1.54059 1.4129,-2.27312 7.234909,-4.4585 12.295909,-12.09247 13.710309,-20.68039 0.5963,-3.62063 0.3627,-8.79323 -0.5562,-12.31411 C 107.2001,5.5900095 86.666191,-4.0293405 70.057891,3.8276495 c -2.5093,1.18712 -5.954,3.63961 -8.1587,5.80877 -10.1322,9.9686985 -11.9309,25.1888585 -4.4124,37.3367285 1.802,2.91158 6.0115,7.26928 8.6715,8.97683 2.54,1.63049 5.8992,3.19226 8.1087,3.7699 l 1.7697,0.46265 -0.1468,0.90666 c -0.2158,1.33355 -2.8612,6.51034 -4.3102,8.43479 -1.4634,1.94369 -1.195,1.93255 -5.2559,0.21809 -12.5008,-5.27774 -21.9479,-16.81074 -24.7459,-30.20981 -4.1538,-19.89093 6.7065,-40.08777856 25.6109,-47.6285785 l 2.444,-0.97487 1.7894,1.4401 c 3.4845,2.8043 10.1691,6.82716994 11.3444,6.82716994 1.2109,0 8.1721,-4.10971994 11.179,-6.59977994 0.82,-0.67909 1.6317,-1.31944 1.8037,-1.423 0.8885,-0.53494 8.379209,3.21181 12.255009,6.12979 8.3583,6.29274 13.8944,15.0904085 16.1757,25.7054885 0.5071,2.3599 0.597,3.57474 0.597,8.06979 0,4.49505 -0.09,5.70989 -0.597,8.06979 -3.3311,15.49982 -14.0198,27.42742 -28.698809,32.02502 -1.4219,0.44537 -1.529,0.44834 -1.3657,0.038 z M 3.8906913,28.982718 c -3.89130007655,-0.75956 -6.9438,-2.19247 -9.1467,-4.29366 -5.5690003,-5.31198 -3.3225,-14.0678 4.0736,-15.8767785 1.49319992,-0.36523 2.08029992,-0.3907 3.3902,-0.1471 1.6307,0.30327 2.6295,0.1314 3.0397,-0.52309 0.1196,-0.19088 0.2204,-1.7758 0.2241,-3.52205 0.01,-2.82886 0.078,-3.31923 0.6568,-4.49792006 0.8313,-1.69150994 2.6873,-3.54695994 4.3768997,-4.37556994 1.0132,-0.49688 1.8495,-0.66986 3.5719,-0.73883 3.1895,-0.12771 4.8672,0.52894 7.0681,2.76648 3.7521,3.81471 5.5545,10.24199 4.8646,17.3474185 -0.3252,3.34944 -1.1018,7.30233 -1.9379,9.86436 l -0.6021,1.84511 -1.9844,0.60241 c -5.4923,1.66734 -13.4154997,2.36498 -17.5947997,1.54922 z M 80.884491,-5.9143105 c -4.8701,-2.65371 -9.8526,-6.7405415 -12.511,-10.2619815 -2.582,-3.42025 -4.0922,-8.38081 -3.51,-11.52982 0.5591,-3.02468 2.3636,-5.40951 5.0408,-6.66199 1.1748,-0.54963 1.8639,-0.6826 3.5766,-0.69008 1.8767,-0.008 2.3267,0.0917 3.9009,0.86634 1.1334,0.55772 2.0922,1.267 2.641,1.95364 1.612,2.0168 1.9958,2.33011 2.854,2.33011 0.5683,0 1.0053,-0.21624 1.4011,-0.69337 1.8758,-2.26084 2.7752,-3.07745 4.1098,-3.73176 1.2577,-0.61665 1.8257,-0.73082 3.6093,-0.72557 1.7473,0.005 2.3937,0.13431 3.7041,0.74021 3.2395,1.49778 4.908009,3.93841 5.102609,7.4639 0.1493,2.7066 -0.2428,4.57237 -1.508109,7.17579 -1.316,2.70752 -2.9497,4.83853 -5.7195,7.46035 -2.9968,2.8367515 -9.5382,7.1969815 -10.7646,7.1752815 -0.1867,-0.003 -1.0539,-0.39528 -1.927,-0.87105 z"
       id="path116" />
  </g>
</svg>
