<?xml version="1.0" encoding="UTF-8" standalone="no"?>
<!-- Created with Inkscape (http://www.inkscape.org/) -->

<svg
   width="101.33619mm"
   height="109.8755mm"
   viewBox="0 0 101.33619 109.8755"
   version="1.1"
   id="svg5"
   inkscape:version="1.3.2 (091e20e, 2023-11-25, custom)"
   sodipodi:docname="Icon Pack Website Keluarga Bahagia.pdf"
   inkscape:dataloss="true"
   xmlns:inkscape="http://www.inkscape.org/namespaces/inkscape"
   xmlns:sodipodi="http://sodipodi.sourceforge.net/DTD/sodipodi-0.dtd"
   xmlns="http://www.w3.org/2000/svg"
   xmlns:svg="http://www.w3.org/2000/svg">
  <sodipodi:namedview
     id="namedview7"
     pagecolor="#ffffff"
     bordercolor="#eeeeee"
     borderopacity="1"
     inkscape:showpageshadow="0"
     inkscape:pageopacity="0"
     inkscape:pagecheckerboard="0"
     inkscape:deskcolor="#4d4d4d"
     inkscape:document-units="mm"
     showgrid="false"
     inkscape:zoom="0.2447271"
     inkscape:cx="83.766776"
     inkscape:cy="1052.1924"
     inkscape:window-width="1920"
     inkscape:window-height="991"
     inkscape:window-x="-9"
     inkscape:window-y="-9"
     inkscape:window-maximized="1"
     inkscape:current-layer="layer1" />
  <defs
     id="defs2" />
  <g
     inkscape:label="Layer 1"
     inkscape:groupmode="layer"
     id="layer1"
     transform="translate(-7.5377496,166.95208)">
    <path
       style="fill:currentColor;fill-opacity:1"
       d="m 13.87135,-57.23568 c -1.3536,-0.32723 -3.5665,-1.66615 -4.3753,-2.64726 -0.4201,-0.50974 -1.0326,-1.46625 -1.3611,-2.12556 l -0.5972,-1.198751 v -44.582289 -44.58229 l 0.6552,-1.32291 c 0.8354,-1.68701 2.421,-3.27237 4.1073,-4.10685 1.2981,-0.64233 1.463,-0.65623 8.7745,-0.73952 l 7.4516,-0.0849 0.089,-2.87372 c 0.096,-3.10482 0.3282,-3.69712 1.9107,-4.87866 1.0245,-0.76492 3.5342,-0.76492 4.5587,0 1.5846,1.18307 1.8145,1.77205 1.9113,4.89689 l 0.09,2.89197 h 21.1198 21.1199 l 0.09,-2.89197 c 0.097,-3.12484 0.3266,-3.71382 1.9112,-4.89689 1.0245,-0.76492 3.5342,-0.76492 4.5587,0 1.5825,1.18154 1.8145,1.77384 1.9108,4.87866 l 0.089,2.87372 7.4515,0.0849 c 7.1121,0.081 7.5062,0.11207 8.6503,0.68155 1.8847,0.9381 2.9991,2.00621 3.9794,3.81425 l 0.9073,1.67348 v 44.58229 44.582289 l -0.713,1.351351 c -1.0561,2.00185 -1.8534,2.82598 -3.7052,3.83006 l -1.6672,0.90401 -44.0532,0.041 c -24.2292,0.0226 -44.4176,-0.0471 -44.8632,-0.15484 z m 86.6675,-37.853861 v -29.633329 h -42.3334 -42.3333 v 29.633329 29.63333 h 42.3333 42.3334 z m -49.7825,14.33414 c -1.4448,-0.73659 -15.2099,-13.94518 -15.5503,-14.92157 -1.1254,-3.22851 1.5117,-6.278789 4.8817,-5.646559 1.0007,0.18773 2.1611,1.17443 8.7953,7.478709 l 3.6766,3.49367 11.0911,-10.463179 c 6.122,-5.77529 11.5025,-10.64263 12.0093,-10.86371 2.4427,-1.06572 5.3889,0.61858 5.7466,3.28525 0.3018,2.25046 0.397,2.14271 -13.3232,15.084089 -7.0612,6.66038 -13.2737,12.31502 -13.8056,12.56587 -1.2532,0.59097 -2.3453,0.58707 -3.5215,-0.0126 z m 49.7825,-60.900799 v -8.46667 h -6.3266 -6.3266 l -0.09,2.89196 c -0.097,3.12485 -0.3266,3.71383 -1.9112,4.8969 -1.0246,0.76491 -3.5342,0.76491 -4.5588,0 -1.5846,-1.18307 -1.8144,-1.77205 -1.9112,-4.8969 l -0.09,-2.89196 h -21.1198 -21.1199 l -0.09,2.89196 c -0.097,3.12485 -0.3266,3.71383 -1.9112,4.8969 -1.0245,0.76491 -3.5342,0.76491 -4.5587,0 -1.5846,-1.18307 -1.8145,-1.77205 -1.9113,-4.8969 l -0.09,-2.89196 h -6.3266 -6.3266 v 8.46667 8.46666 h 42.3334 42.3333 z"
       id="path114" />
  </g>
</svg>
