<?xml version="1.0" encoding="UTF-8" standalone="no"?>
<!-- Created with Inkscape (http://www.inkscape.org/) -->

<svg
   width="135.46179mm"
   height="89.855759mm"
   viewBox="0 0 135.4618 89.855758"
   version="1.1"
   id="svg5"
   inkscape:version="1.3.2 (091e20e, 2023-11-25, custom)"
   sodipodi:docname="Icon Pack Website Keluarga Bahagia.pdf"
   inkscape:dataloss="true"
   xmlns:inkscape="http://www.inkscape.org/namespaces/inkscape"
   xmlns:sodipodi="http://sodipodi.sourceforge.net/DTD/sodipodi-0.dtd"
   xmlns="http://www.w3.org/2000/svg"
   xmlns:svg="http://www.w3.org/2000/svg">
  <sodipodi:namedview
     id="namedview7"
     pagecolor="#ffffff"
     bordercolor="#eeeeee"
     borderopacity="1"
     inkscape:showpageshadow="0"
     inkscape:pageopacity="0"
     inkscape:pagecheckerboard="0"
     inkscape:deskcolor="#4d4d4d"
     inkscape:document-units="mm"
     showgrid="false"
     inkscape:zoom="0.2447271"
     inkscape:cx="83.766776"
     inkscape:cy="1052.1924"
     inkscape:window-width="1920"
     inkscape:window-height="991"
     inkscape:window-x="-9"
     inkscape:window-y="-9"
     inkscape:window-maximized="1"
     inkscape:current-layer="layer1" />
  <defs
     id="defs2" />
  <g
     inkscape:label="Layer 1"
     inkscape:groupmode="layer"
     id="layer1"
     transform="translate(9.5250421,-119.01231)">
    <path
       style="fill: currentColor;fill-opacity:1"
       d="m 55.496701,208.62195 c -3.4833,-0.4062 -6.9611,-1.7533 -9.9633,-3.8593 -2.1165,-1.4847 -53.1708998,-52.30222 -54.3106998,-54.05872 -0.8478,-1.30647 -0.9684,-2.46922 -0.3937,-3.79315 0.2111,-0.48607 6.0864,-6.54764 13.6923,-14.12635 C 15.992001,121.3547 17.992101,119.47062 18.910501,119.2299 c 2.1422,-0.56148 2.6421,-0.23161 8.5906,5.66933 l 5.424,5.38056 2.5752,-1.2712 c 3.4181,-1.68725 5.4388,-2.18431 9.4856,-2.33332 2.7976,-0.10302 3.6853,-0.0328 5.5563,0.43956 2.2566,0.56973 5.4675,1.94797 6.8778,2.9522 l 0.7728,0.55026 0.7727,-0.55026 c 1.4103,-1.00423 4.6213,-2.38247 6.8779,-2.9522 1.8709,-0.47235 2.7586,-0.54258 5.5562,-0.43956 4.0468,0.14901 6.0675,0.64607 9.4856,2.33332 l 2.5753,1.2712 5.4239,-5.3823 c 4.4692,-4.43479 5.6118,-5.43201 6.4907,-5.66473 2.3387,-0.61925 1.9367,-0.95162 16.709509,13.81686 12.0766,12.07312 13.5627,13.64911 13.7264,14.55663 0.4241,2.35123 0.545,2.20419 -12.9705,15.78334 l -12.5088,12.56766 -0.349109,1.7198 c -1.0791,5.3166 -5.6814,10.4123 -11.0038,12.1835 l -1.6495,0.5489 -0.5489,1.6495 c -1.7964,5.3982 -6.979,10.0077 -12.448,11.0715 -1.264,0.2458 -2.0705,0.602 -3.0428,1.3436 -1.6004,1.2208 -5.0226,2.9148 -7.0114,3.4705 -1.475,0.4122 -5.4936,0.9823 -6.4754,0.9186 -0.2948,-0.019 -1.3326,-0.1277 -2.3061,-0.2412 z m 7.0516,-8.5096 c 1.9158,-0.6294 3.4172,-1.4872 4.945,-2.8251 1.556,-1.3625 1.926,-1.5236 3.9946,-1.7391 3.2938,-0.3432 6.1717,-2.3306 7.4019,-5.1117 0.2909,-0.6577 0.6336,-2.0286 0.7613,-3.0462 0.4038,-3.2157 1.4433,-4.2552 4.659,-4.659 2.265,-0.2844 3.8994,-0.9806 5.3247,-2.2683 1.0508,-0.9494 2.6892,-3.7612 2.6892,-4.6153 0,-0.2321 -4.7942,-5.2151 -10.6539,-11.0735 l -10.6539,-10.65144 -1.7154,1.75377 c -5.2041,5.32067 -10.2115,7.83777 -16.3595,8.22367 -4.1948,0.2633 -9.0849,-1.00358 -12.7402,-3.30058 -2.0304,-1.27594 -4.1741,-3.14253 -4.637,-4.03768 -0.4605,-0.89054 -0.5107,-2.6937 -0.098,-3.51001 0.1608,-0.31786 3.988,-4.2867 8.5048,-8.81966 l 8.2123,-8.24173 -0.7774,-0.40203 c -1.4149,-0.73168 -3.9742,-1.23846 -6.2544,-1.23846 -2.7959,0 -5.1138,0.67424 -7.2392,2.10572 -0.8683,0.58477 -6.717,6.21797 -13.3209,12.83004 l -11.773,11.78755 18.123,18.13464 c 9.9677,9.974 18.7184,18.5253 19.446,19.0029 3.7307,2.4485 8.048,3.0526 12.1607,1.7015 z m 29.2454,-50.62447 c -6.475,-6.48172 -12.381,-12.19189 -13.1245,-12.68926 -0.7434,-0.49738 -2.2912,-1.22032 -3.4395,-1.60654 -1.879,-0.63194 -2.366,-0.68957 -4.8661,-0.57582 -3.063,0.13935 -4.8053,0.65968 -7.0393,2.1023 -1.2186,0.78689 -18.0961,17.30711 -18.0961,17.71301 0,0.35736 3.0339,1.32299 5.1052,1.62488 1.732,0.25246 2.4153,0.2321 4.1333,-0.12314 3.6083,-0.74611 4.6894,-1.45441 9.7068,-6.35953 2.489,-2.43333 4.8483,-4.54694 5.2427,-4.69692 1.0125,-0.38492 2.4376,-0.33838 3.2756,0.10696 0.393,0.20881 5.8932,5.56661 12.2227,11.90622 l 11.5082,11.52661 3.5719,-3.5719 3.571909,-3.57192 z m -74.675,-3.89401 9.8556,-9.85823 -3.5742,-3.56687 -3.5742,-3.56687 -9.7885,9.78573 c -5.3835998,5.38215 -9.78839965,9.90374 -9.78839965,10.04798 0,0.26314 6.61879985,7.01648 6.87669985,7.01648 0.076,0 4.5723998,-4.4362 9.9929998,-9.85822 z m 95.640709,6.4886 c 1.8574,-1.85329 3.3771,-3.49101 3.3771,-3.63937 0,-0.14835 -4.4048,-4.67332 -9.7884,-10.05547 l -9.788409,-9.78573 -3.5742,3.56687 -3.5743,3.56687 9.8556,9.85823 c 5.420609,5.42202 9.914109,9.85822 9.985509,9.85822 0.072,0 1.6497,-1.51633 3.5071,-3.36962 z"
       id="path118" />
  </g>
</svg>
